<?xml version="1.0" encoding="utf-8"?><svg version="1.1" id="Layer_1" x="0px" y="0px" viewBox="27.19298219680786 10.197368621826172 203.94735288619995 212.11666870117188" style="enable-background:new 0 0 775 276.7;" xmlns="http://www.w3.org/2000/svg">  <style type="text/css">.st0{fill:#1A1A1A;}</style>  <g transform="matrix(1, 0, 0, 1, 5.665205, 0)">    <g>      <path class="st0" d="M126.7,62.5c0-17.1-10.4-31.8-25.2-38.1c-5-2.1-10.4-3.3-16.1-3.3H36.7h-0.1l0.1,115.2h25.1v-32.5h18.6&#10;&#9;&#9;&#9;l15.9,32.5h27.4l-18.8-37.4C117.9,91.9,126.7,78.2,126.7,62.5z M101.6,62.5c0,9-7.3,16.3-16.3,16.3H61.8V46.2h23.5&#10;&#9;&#9;&#9;C94.3,46.2,101.6,53.5,101.6,62.5z" style="fill: rgb(230, 230, 230);"/>      <path class="st0" d="M157.9,99.4v-8.9L136.6,110l21.3,20.4v-8.9c20.3,0,32.4,17.6,32.4,35.5c0,17.9-12.5,36.1-32.4,36.1&#10;&#9;&#9;&#9;c-21.6,0-32.4-18.2-32.4-36.1h-25.2c0,31.8,25.8,57.6,57.6,57.6c31.8,0,57.6-25.8,57.6-57.6C215.6,125.1,189.8,99.4,157.9,99.4z" style="fill: rgb(230, 230, 230);"/>    </g>  </g></svg>